<?xml version="1.0" encoding="UTF-8"?>
<svg xmlns="http://www.w3.org/2000/svg" xmlns:xlink="http://www.w3.org/1999/xlink" version="1.1" id="Layer_1" x="0px" y="0px" width="459" viewBox="0 0 459 443" enable-background="new 0 0 459 443" xml:space="preserve" height="443" style="background: transparent;">
<path fill="#112B54" opacity="1.000000" stroke="none" d=" M267.939392,3.066082   C274.672668,4.565400 281.442444,5.918909 288.131531,7.594584   C301.789948,11.016138 314.022552,17.472296 325.212036,25.879860   C338.870483,36.142502 350.189728,48.590981 358.602692,63.498039   C366.122772,76.822868 371.635864,90.975525 374.993103,105.936722   C375.155914,106.662247 375.530060,107.340340 376.146515,108.905823   C377.169067,102.543251 377.759491,97.071114 378.972900,91.740791   C380.796539,83.729897 386.898773,79.685623 394.968475,79.819656   C401.420563,79.926811 407.887024,79.297646 414.344055,78.940117   C419.266266,78.667572 424.179443,78.167763 429.104187,78.018173   C438.500122,77.732765 444.580933,81.760536 446.982391,91.083023   C448.864044,98.387657 449.828125,105.997711 450.457336,113.534065   C450.959778,119.552559 450.337799,125.664337 450.225098,131.734909   C450.030487,142.217804 444.803284,150.186783 437.555725,157.153809   C437.095276,157.596466 436.689636,158.096191 436.851929,157.918076   C441.841827,163.687164 447.117401,168.888916 451.321320,174.846848   C458.513123,185.039322 458.312317,196.921707 456.116821,208.386230   C453.297028,223.110748 446.333466,235.997223 435.743988,246.905853   C433.237396,249.487961 432.240173,253.473648 430.208618,256.592224   C426.688202,261.996185 421.653961,264.535675 415.136993,265.648834   C409.087830,266.682098 403.360168,269.597412 396.532623,272.024780   C400.343658,278.421417 403.417694,284.050873 406.934631,289.388519   C414.832703,301.375427 423.664276,312.808258 430.787048,325.228668   C438.580963,338.819366 437.615326,352.835114 429.934631,366.792908   C422.496033,380.310699 411.696228,389.457855 397.060181,393.151428   C388.398163,395.337341 379.030396,396.342834 370.150726,395.659821   C357.768524,394.707397 350.352692,399.740784 344.782288,410.126953   C337.828308,423.092865 327.566528,433.384766 313.300934,437.278137   C304.772034,439.605835 294.951996,439.751251 286.217316,438.139984   C274.967560,436.064697 264.168549,431.404083 253.278564,427.564331   C244.133331,424.339783 235.380356,424.680420 226.067581,427.549622   C218.828339,429.779999 210.970535,430.440582 203.335953,430.861908   C185.523758,431.844910 172.354141,422.551819 160.345993,410.683289   C144.578506,395.099121 136.168198,375.846527 131.639252,354.600311   C130.312531,348.376434 129.519928,342.037872 128.512711,335.747070   C128.062912,332.937836 126.470207,331.754852 123.656303,332.045502   C109.035393,333.555725 98.411362,326.326904 88.869987,316.404572   C87.337891,314.811310 84.705605,313.484894 82.540611,313.420349   C68.898590,313.013550 55.517063,310.935760 42.557594,306.862488   C34.414917,304.303223 26.277100,301.232483 18.804630,297.164917   C9.855350,292.293396 3.486730,284.926514 4.040787,273.699860   C4.351968,267.394562 7.728095,262.562988 11.538563,257.806763   C12.879848,256.132599 14.012491,253.086136 13.413812,251.267609   C10.538161,242.532669 14.535018,236.251709 19.874950,230.225754   C22.610647,227.138611 25.329004,224.036041 28.040226,220.927383   C28.474813,220.429092 28.712563,219.634262 29.240398,219.360809   C37.794167,214.929321 40.558754,206.751862 43.143616,198.356644   C43.707211,196.526199 44.832851,194.522781 46.305904,193.381668   C51.212349,189.580811 49.392574,186.187302 46.180386,182.643555   C40.497562,176.374176 39.325138,168.561203 41.664398,161.182724   C45.742558,148.319412 52.462200,145.857254 66.416214,147.203598   C68.533958,147.407898 71.106544,146.621521 72.923889,145.448929   C76.835754,142.924881 80.535248,141.325150 85.504486,140.705734   C98.396774,139.098755 104.160583,146.334930 108.220268,155.663544   C114.422745,155.375961 120.277138,155.104507 126.848686,154.799820   C127.195511,151.581375 127.479179,147.872299 128.013214,144.199661   C129.485413,134.075058 130.414871,123.812325 132.765137,113.889923   C135.577011,102.018814 138.558823,89.969910 143.433563,78.860954   C149.456253,65.135948 157.405334,52.345261 167.690735,41.025028   C177.770889,29.930714 189.052124,20.711020 202.576706,14.397736   C214.457794,8.851630 226.587067,3.871360 241.008759,4.008066   C245.065933,3.999515 248.203979,4.104250 251.332382,3.975351   C256.871124,3.747141 262.404053,3.376892 267.939392,3.066082  M393.023651,152.593231   C393.409027,152.911819 393.768738,153.269302 394.183594,153.543213   C401.096130,158.107010 401.237701,162.052902 395.197357,167.523422   C392.532654,169.936768 390.705811,173.249939 388.255737,175.932785   C385.834625,178.583908 383.107208,180.955292 380.514130,183.449387   C380.059265,183.155060 379.604370,182.860733 379.149475,182.566391   C377.081635,163.889908 375.147949,145.197372 372.913879,126.540787   C369.735107,99.995209 361.911774,75.121712 345.590149,53.476147   C316.176483,14.468000 267.851349,-0.627652 221.678284,12.798857   C186.607025,22.997112 163.783417,46.992504 149.201019,79.592598   C138.574753,103.348442 134.858704,128.700546 132.518692,154.334366   C132.214447,157.667191 131.886856,160.997864 131.702942,162.932175   C126.233078,161.860901 121.401642,160.428696 116.492905,160.077744   C110.515427,159.650406 107.781197,164.505020 104.425919,168.965561   C103.496231,167.069061 102.884392,165.213165 102.994728,163.401245   C103.672256,152.274948 97.524216,145.811340 86.588654,145.632675   C79.397903,145.515198 75.548119,150.075439 71.747993,155.116425   C70.652603,154.501144 69.814125,153.991318 68.942505,153.546417   C57.337852,147.623398 44.999153,155.317657 46.481579,168.211288   C47.068455,173.315750 50.497223,178.152359 52.928173,182.961227   C54.153378,185.384888 56.040081,187.474152 57.852379,190.031738   C47.189011,196.354660 44.625828,206.037033 44.711487,217.280533   C38.669762,217.666672 34.312462,220.527466 31.137026,225.527817   C29.531487,228.056061 27.500397,230.477020 25.184904,232.360229   C18.811411,237.543854 16.473042,245.163376 19.311060,252.953186   C19.807758,254.316528 20.342520,255.666000 20.844702,256.982574   C19.303040,258.262390 18.003033,259.294830 16.754089,260.385773   C6.741640,269.131531 6.585289,280.592926 16.710102,289.108093   C20.102381,291.961090 24.049425,294.383789 28.108229,296.175598   C46.492355,304.291199 66.105774,306.929382 85.901901,308.783875   C88.141228,308.993683 90.738838,310.558716 92.269897,312.291138   C100.904739,322.061462 111.384384,327.626343 124.594032,327.583191   C127.366577,327.574127 130.139175,327.581848 133.121155,327.581848   C133.402283,330.184021 133.658447,332.647552 133.935867,335.108734   C136.587738,358.635681 142.724045,380.918243 157.617157,399.945190   C174.202072,421.133545 198.225815,433.570526 228.681961,421.339508   C233.356506,419.462250 239.410812,418.752411 244.222885,419.943420   C255.313873,422.688416 265.971283,427.134674 276.917755,430.525452   C294.606476,436.004730 312.053375,436.694458 326.842102,423.523895   C332.936127,418.096680 337.804688,411.019623 342.227325,404.055847   C348.342804,394.426544 356.437592,389.447144 367.851654,389.752075   C372.846405,389.885529 377.851532,389.622345 382.846802,389.745911   C393.437927,390.007965 402.754547,386.559174 411.308014,380.521057   C427.159119,369.331268 438.743988,345.737213 423.380676,322.463928   C419.896210,317.185333 415.926361,312.225433 412.480255,306.923584   C404.713531,294.974609 397.134796,282.903473 389.264832,270.544861   C395.118866,267.568817 399.740601,264.981201 404.566437,262.857269   C407.356903,261.629120 410.458405,260.544830 413.451385,260.456024   C419.833099,260.266785 424.025391,257.073425 427.311554,252.067200   C430.835876,246.698227 434.827515,241.579376 437.816864,235.929001   C442.454895,227.162247 447.917358,218.423477 450.344055,208.982376   C454.995087,190.887451 450.555389,173.625763 433.054779,163.690384   C429.888458,161.892807 429.585785,156.269028 432.606628,154.117523   C441.743134,147.610306 445.281830,138.327637 445.091522,127.689079   C444.904236,117.218719 444.070862,106.731422 442.944946,96.313820   C441.644287,84.279495 431.807892,78.611633 421.660431,86.680145   C415.550903,81.763298 409.564484,82.201324 404.043427,87.556267   C397.337036,83.177826 392.355377,82.557693 388.389648,86.631142   C385.990479,89.095505 383.772949,92.765709 383.485535,96.069176   C382.520813,107.156311 381.889587,118.339828 382.235962,129.451996   C382.505005,138.083069 385.802002,146.027786 393.023651,152.593231  M388.504395,167.005524   C389.440704,166.067734 390.287079,165.012619 391.329590,164.213348   C394.977814,161.416382 393.854187,159.652695 390.638062,157.161087   C387.091766,154.413681 384.264404,150.738266 380.976715,147.313797   C381.682251,155.764328 382.392548,164.271317 383.147766,173.316879   C385.080566,171.004410 386.541534,169.256424 388.504395,167.005524  z"/>
<path fill="#252549" opacity="1.000000" stroke="none" d=" M267.477570,3.040175   C262.404053,3.376892 256.871124,3.747141 251.332382,3.975351   C248.203979,4.104250 245.065933,3.999515 241.463120,3.995648   C245.533844,3.661176 250.069077,3.212865 254.614883,3.035904   C258.742523,2.875220 262.881683,3.009836 267.477570,3.040175  z"/>
<path fill="#F6F3F1" opacity="1.000000" stroke="none" d=" M392.757019,152.343155   C385.802002,146.027786 382.505005,138.083069 382.235962,129.451996   C381.889587,118.339828 382.520813,107.156311 383.485535,96.069176   C383.772949,92.765709 385.990479,89.095505 388.389648,86.631142   C392.355377,82.557693 397.337036,83.177826 404.043427,87.556267   C409.564484,82.201324 415.550903,81.763298 421.660431,86.680145   C431.807892,78.611633 441.644287,84.279495 442.944946,96.313820   C444.070862,106.731422 444.904236,117.218719 445.091522,127.689079   C445.281830,138.327637 441.743134,147.610306 432.606628,154.117523   C429.585785,156.269028 429.888458,161.892807 433.054779,163.690384   C450.555389,173.625763 454.995087,190.887451 450.344055,208.982376   C447.917358,218.423477 442.454895,227.162247 437.816864,235.929001   C434.827515,241.579376 430.835876,246.698227 427.311554,252.067200   C424.025391,257.073425 419.833099,260.266785 413.451385,260.456024   C410.458405,260.544830 407.356903,261.629120 404.566437,262.857269   C399.740601,264.981201 395.118866,267.568817 389.264832,270.544861   C397.134796,282.903473 404.713531,294.974609 412.480255,306.923584   C415.926361,312.225433 419.896210,317.185333 423.380676,322.463928   C438.743988,345.737213 427.159119,369.331268 411.308014,380.521057   C402.754547,386.559174 393.437927,390.007965 382.846802,389.745911   C377.851532,389.622345 372.846405,389.885529 367.851654,389.752075   C356.437592,389.447144 348.342804,394.426544 342.227325,404.055847   C337.804688,411.019623 332.936127,418.096680 326.842102,423.523895   C312.053375,436.694458 294.606476,436.004730 276.917755,430.525452   C265.971283,427.134674 255.313873,422.688416 244.222885,419.943420   C239.410812,418.752411 233.356506,419.462250 228.681961,421.339508   C198.225815,433.570526 174.202072,421.133545 157.617157,399.945190   C142.724045,380.918243 136.587738,358.635681 133.935867,335.108734   C133.658447,332.647552 133.402283,330.184021 133.121155,327.581848   C130.139175,327.581848 127.366577,327.574127 124.594032,327.583191   C111.384384,327.626343 100.904739,322.061462 92.269897,312.291138   C90.738838,310.558716 88.141228,308.993683 85.901901,308.783875   C66.105774,306.929382 46.492355,304.291199 28.108229,296.175598   C24.049425,294.383789 20.102381,291.961090 16.710102,289.108093   C6.585289,280.592926 6.741640,269.131531 16.754089,260.385773   C18.003033,259.294830 19.303040,258.262390 20.844702,256.982574   C20.342520,255.666000 19.807758,254.316528 19.311060,252.953186   C16.473042,245.163376 18.811411,237.543854 25.184904,232.360229   C27.500397,230.477020 29.531487,228.056061 31.137026,225.527817   C34.312462,220.527466 38.669762,217.666672 44.711487,217.280533   C44.625828,206.037033 47.189011,196.354660 57.852379,190.031738   C56.040081,187.474152 54.153378,185.384888 52.928173,182.961227   C50.497223,178.152359 47.068455,173.315750 46.481579,168.211288   C44.999153,155.317657 57.337852,147.623398 68.942505,153.546417   C69.814125,153.991318 70.652603,154.501144 71.747993,155.116425   C75.548119,150.075439 79.397903,145.515198 86.588654,145.632675   C97.524216,145.811340 103.672256,152.274948 102.994728,163.401245   C102.884392,165.213165 103.496231,167.069061 104.425919,168.965561   C107.781197,164.505020 110.515427,159.650406 116.492905,160.077744   C121.401642,160.428696 126.233078,161.860901 131.702942,162.932175   C131.886856,160.997864 132.214447,157.667191 132.518692,154.334366   C134.858704,128.700546 138.574753,103.348442 149.201019,79.592598   C163.783417,46.992504 186.607025,22.997112 221.678284,12.798857   C267.851349,-0.627652 316.176483,14.468000 345.590149,53.476147   C361.911774,75.121712 369.735107,99.995209 372.913879,126.540787   C375.147949,145.197372 377.081635,163.889908 379.149475,182.566391   C379.604370,182.860733 380.059265,183.155060 380.514130,183.449387   C383.107208,180.955292 385.834625,178.583908 388.255737,175.932785   C390.705811,173.249939 392.532654,169.936768 395.197357,167.523422   C401.237701,162.052902 401.096130,158.107010 394.183594,153.543213   C393.768738,153.269302 393.409027,152.911819 392.757019,152.343155  M138.339035,160.933563   C137.882034,168.081329 137.171234,175.225388 137.066376,182.378311   C137.006622,186.454575 135.168274,187.198273 132.507217,186.801865   C130.676895,181.140366 129.585480,175.516693 127.070976,170.624435   C124.601021,165.818863 118.284660,164.660629 114.489182,167.200668   C111.092316,169.473923 110.917656,173.457245 113.804504,178.813919   C115.487564,181.936935 116.961304,185.172775 118.334717,187.962723   C113.552040,189.743271 109.282715,190.739990 105.657410,192.845566   C101.873390,195.043350 98.709656,198.309113 95.226967,201.146912   C93.767830,199.864365 92.305382,198.578918 90.485245,196.979080   C93.054588,193.902206 95.298622,191.275757 97.476433,188.595520   C104.115578,180.424652 103.420219,175.776154 94.631828,170.236130   C94.978104,169.018372 95.344093,167.753326 95.697502,166.484756   C97.646111,159.489990 95.655251,153.817139 90.636467,152.054199   C85.200623,150.144775 79.378990,153.666229 76.834076,160.515396   C75.933525,162.939056 75.276001,165.453018 74.325836,168.510391   C72.377930,165.950943 70.963440,163.749237 69.211227,161.860886   C65.469223,157.828186 60.294144,156.823669 56.601505,159.178650   C52.795467,161.605957 51.339306,167.227325 53.720261,172.162216   C55.149311,175.124130 57.439205,177.657715 59.139595,180.504807   C61.607330,184.636734 63.891998,188.878006 66.489418,193.489258   C49.221478,199.249542 51.397564,213.018951 51.062111,225.600662   C42.475964,222.236908 38.512981,224.135391 35.590611,232.150620   C35.059803,233.606476 33.541424,235.025177 32.117813,235.779022   C24.213722,239.964432 22.363070,247.669327 27.720945,254.990204   C28.762074,256.412781 29.923483,257.747314 30.873323,258.928406   C27.107193,261.414276 23.342216,263.331543 20.278046,266.041321   C14.093668,271.510345 13.967845,278.443726 20.379213,283.601105   C24.710377,287.085114 29.800850,289.950073 34.985386,291.989227   C52.533184,298.890991 71.093636,301.089081 89.729187,302.543640   C92.750671,302.779480 94.388878,303.948151 96.116592,306.305542   C103.252373,316.041840 112.831520,321.446747 125.110718,321.175171   C129.678162,321.074158 134.231934,320.355286 139.047226,319.893707   C139.362030,323.236877 139.675262,326.359802 139.947433,329.486328   C142.015106,353.239105 147.408646,375.880585 162.210419,395.308960   C176.105606,413.547363 198.148300,427.421143 226.229248,415.227478   C233.136826,412.227966 240.580765,411.787109 247.803970,413.895294   C256.572449,416.454559 265.277191,419.329224 273.802948,422.605072   C301.795319,433.360626 321.761108,427.653107 336.422302,401.429443   C343.963165,387.941498 355.391235,382.629150 370.506714,383.609222   C376.445831,383.994263 382.501282,383.646667 388.428375,382.971344   C413.090637,380.161255 437.699524,350.721252 415.208313,321.750336   C409.494141,314.389893 404.106720,306.722504 399.186096,298.812408   C392.718231,288.415192 386.860809,277.638245 380.748108,267.037109   C389.143768,262.931366 396.381836,259.269531 403.741180,255.870209   C405.841064,254.900269 408.308716,254.167664 410.580292,254.236160   C416.670258,254.419861 420.784027,251.796509 423.001678,246.221756   C424.068024,243.541138 425.545197,240.869247 427.413605,238.687820   C438.590637,225.638474 446.437408,211.361008 445.229675,193.452545   C444.552734,183.415268 440.382172,174.879990 431.377472,170.634995   C424.521759,167.403076 423.208923,163.083786 424.107635,156.688812   C424.245483,155.708069 423.861908,154.588913 424.196228,153.716461   C424.678375,152.458313 425.320923,150.825638 426.372375,150.290070   C435.391632,145.696075 438.742340,137.520645 438.733856,128.386932   C438.723846,117.607651 437.268280,106.821251 436.244659,96.056450   C435.932190,92.770241 434.538574,89.362801 430.702271,89.426155   C426.339111,89.498207 425.821960,93.395378 425.624237,96.775032   C425.274139,102.759735 425.312164,108.768074 424.918304,114.748772   C424.778381,116.873466 423.854034,118.946503 423.287811,121.043121   C422.703217,121.035904 422.118652,121.028679 421.534058,121.021454   C420.946442,118.197807 420.110596,115.399002 419.824951,112.545128   C419.294403,107.245056 419.189240,101.903305 418.703491,96.597534   C418.402618,93.310951 417.447113,89.983643 413.392700,89.884506   C409.128693,89.780235 408.441498,93.309685 408.208008,96.517746   C407.845551,101.497681 407.991180,106.513901 407.653564,111.496590   C407.431671,114.771126 406.738342,118.013710 406.256134,121.270607   C405.576080,121.314499 404.896027,121.358383 404.215973,121.402275   C403.479919,118.853294 402.371552,116.345367 402.085022,113.746826   C401.483185,108.288033 401.427246,102.771126 400.923187,97.298706   C400.616333,93.967102 399.370483,90.808983 395.457672,90.618057   C391.694122,90.434410 390.022369,93.495583 389.906738,96.543198   C389.447479,108.651314 388.806488,120.803253 389.405212,132.880829   C389.738098,139.595215 393.081848,146.379288 399.667938,149.066528   C405.471069,151.434341 405.886139,154.905838 405.912811,160.088577   C405.939545,165.285980 405.270813,169.131485 400.188049,172.000977   C397.381195,173.585602 395.569183,177.091614 393.570648,179.916779   C388.947235,186.452530 382.526031,189.967331 374.676361,192.244919   C374.012207,188.867706 373.275848,186.127197 372.957001,183.338928   C370.932495,165.634903 369.144897,147.902817 367.003235,130.213394   C363.880066,104.416817 356.960632,79.956558 341.342041,58.579433   C306.154785,10.418758 238.478104,-0.158782 190.796524,35.422855   C170.302841,50.715946 157.986420,71.875076 149.933044,95.726105   C142.895676,116.568100 140.479355,138.262039 138.339035,160.933563  z"/>
<path fill="#E8751D" opacity="1.000000" stroke="none" d=" M138.390961,160.472580   C140.479355,138.262039 142.895676,116.568100 149.933044,95.726105   C157.986420,71.875076 170.302841,50.715946 190.796524,35.422855   C238.478104,-0.158782 306.154785,10.418758 341.342041,58.579433   C356.960632,79.956558 363.880066,104.416817 367.003235,130.213394   C369.144897,147.902817 370.932495,165.634903 372.957001,183.338928   C373.275848,186.127197 374.012207,188.867706 374.676361,192.244919   C382.526031,189.967331 388.947235,186.452530 393.570648,179.916779   C395.569183,177.091614 397.381195,173.585602 400.188049,172.000977   C405.270813,169.131485 405.939545,165.285980 405.912811,160.088577   C405.886139,154.905838 405.471069,151.434341 399.667938,149.066528   C393.081848,146.379288 389.738098,139.595215 389.405212,132.880829   C388.806488,120.803253 389.447479,108.651314 389.906738,96.543198   C390.022369,93.495583 391.694122,90.434410 395.457672,90.618057   C399.370483,90.808983 400.616333,93.967102 400.923187,97.298706   C401.427246,102.771126 401.483185,108.288033 402.085022,113.746826   C402.371552,116.345367 403.479919,118.853294 404.215973,121.402275   C404.896027,121.358383 405.576080,121.314499 406.256134,121.270607   C406.738342,118.013710 407.431671,114.771126 407.653564,111.496590   C407.991180,106.513901 407.845551,101.497681 408.208008,96.517746   C408.441498,93.309685 409.128693,89.780235 413.392700,89.884506   C417.447113,89.983643 418.402618,93.310951 418.703491,96.597534   C419.189240,101.903305 419.294403,107.245056 419.824951,112.545128   C420.110596,115.399002 420.946442,118.197807 421.534058,121.021454   C422.118652,121.028679 422.703217,121.035904 423.287811,121.043121   C423.854034,118.946503 424.778381,116.873466 424.918304,114.748772   C425.312164,108.768074 425.274139,102.759735 425.624237,96.775032   C425.821960,93.395378 426.339111,89.498207 430.702271,89.426155   C434.538574,89.362801 435.932190,92.770241 436.244659,96.056450   C437.268280,106.821251 438.723846,117.607651 438.733856,128.386932   C438.742340,137.520645 435.391632,145.696075 426.372375,150.290070   C425.320923,150.825638 424.678375,152.458313 424.196228,153.716461   C423.861908,154.588913 424.245483,155.708069 424.107635,156.688812   C423.208923,163.083786 424.521759,167.403076 431.377472,170.634995   C440.382172,174.879990 444.552734,183.415268 445.229675,193.452545   C446.437408,211.361008 438.590637,225.638474 427.413605,238.687820   C425.545197,240.869247 424.068024,243.541138 423.001678,246.221756   C420.784027,251.796509 416.670258,254.419861 410.580292,254.236160   C408.308716,254.167664 405.841064,254.900269 403.741180,255.870209   C396.381836,259.269531 389.143768,262.931366 380.748108,267.037109   C386.860809,277.638245 392.718231,288.415192 399.186096,298.812408   C404.106720,306.722504 409.494141,314.389893 415.208313,321.750336   C437.699524,350.721252 413.090637,380.161255 388.428375,382.971344   C382.501282,383.646667 376.445831,383.994263 370.506714,383.609222   C355.391235,382.629150 343.963165,387.941498 336.422302,401.429443   C321.761108,427.653107 301.795319,433.360626 273.802948,422.605072   C265.277191,419.329224 256.572449,416.454559 247.803970,413.895294   C240.580765,411.787109 233.136826,412.227966 226.229248,415.227478   C198.148300,427.421143 176.105606,413.547363 162.210419,395.308960   C147.408646,375.880585 142.015106,353.239105 139.947433,329.486328   C139.675262,326.359802 139.362030,323.236877 139.047226,319.893707   C134.231934,320.355286 129.678162,321.074158 125.110718,321.175171   C112.831520,321.446747 103.252373,316.041840 96.116592,306.305542   C94.388878,303.948151 92.750671,302.779480 89.729187,302.543640   C71.093636,301.089081 52.533184,298.890991 34.985386,291.989227   C29.800850,289.950073 24.710377,287.085114 20.379213,283.601105   C13.967845,278.443726 14.093668,271.510345 20.278046,266.041321   C23.342216,263.331543 27.107193,261.414276 30.873323,258.928406   C29.923483,257.747314 28.762074,256.412781 27.720945,254.990204   C22.363070,247.669327 24.213722,239.964432 32.117813,235.779022   C33.541424,235.025177 35.059803,233.606476 35.590611,232.150620   C38.512981,224.135391 42.475964,222.236908 51.062111,225.600662   C51.397564,213.018951 49.221478,199.249542 66.489418,193.489258   C63.891998,188.878006 61.607330,184.636734 59.139595,180.504807   C57.439205,177.657715 55.149311,175.124130 53.720261,172.162216   C51.339306,167.227325 52.795467,161.605957 56.601505,159.178650   C60.294144,156.823669 65.469223,157.828186 69.211227,161.860886   C70.963440,163.749237 72.377930,165.950943 74.325836,168.510391   C75.276001,165.453018 75.933525,162.939056 76.834076,160.515396   C79.378990,153.666229 85.200623,150.144775 90.636467,152.054199   C95.655251,153.817139 97.646111,159.489990 95.697502,166.484756   C95.344093,167.753326 94.978104,169.018372 94.631828,170.236130   C103.420219,175.776154 104.115578,180.424652 97.476433,188.595520   C95.298622,191.275757 93.054588,193.902206 90.485245,196.979080   C92.305382,198.578918 93.767830,199.864365 95.226967,201.146912   C98.709656,198.309113 101.873390,195.043350 105.657410,192.845566   C109.282715,190.739990 113.552040,189.743271 118.334717,187.962723   C116.961304,185.172775 115.487564,181.936935 113.804504,178.813919   C110.917656,173.457245 111.092316,169.473923 114.489182,167.200668   C118.284660,164.660629 124.601021,165.818863 127.070976,170.624435   C129.585480,175.516693 130.676895,181.140366 132.507217,186.801865   C135.168274,187.198273 137.006622,186.454575 137.066376,182.378311   C137.171234,175.225388 137.882034,168.081329 138.390961,160.472580  M220.895355,408.985779   C224.977600,407.494537 229.059860,406.003296 233.978500,404.797668   C246.850739,405.189392 258.756104,409.380402 270.626556,413.885986   C276.527618,416.125824 282.559082,418.228973 288.712067,419.558136   C304.949310,423.065704 315.976593,418.397491 325.278564,404.700592   C326.869629,402.357788 328.514435,400.045197 329.985229,397.627899   C339.652222,381.740143 354.014771,375.414673 372.224701,376.445435   C377.352295,376.735626 382.569672,376.560394 387.672516,375.967285   C406.760376,373.748749 427.467529,351.001953 410.486359,327.090576   C408.171570,323.831146 405.916809,320.524017 403.483551,317.354675   C391.779266,302.110168 381.330109,286.100800 373.441284,268.512970   C370.616486,262.215210 371.402588,261.212952 377.770813,259.006927   C385.443878,256.348938 392.898315,253.033371 400.338440,249.755173   C401.587158,249.204956 403.089081,247.414413 403.107849,246.176254   C403.251740,236.699463 403.098663,227.216736 402.916565,217.738190   C402.893280,216.528137 402.541565,214.872986 401.712372,214.201218   C395.043274,208.798294 391.548767,201.716095 390.491364,193.083252   C386.394592,195.099548 382.793823,197.152695 378.984528,198.688904   C370.702942,202.028687 368.042877,200.635513 366.946716,191.734894   C364.768951,174.051834 363.085541,156.308487 361.005493,138.612671   C358.343597,115.967010 353.286163,94.061646 342.080048,73.819817   C314.904541,24.732235 254.225494,7.151567 205.270096,34.514187   C181.472794,47.815201 167.250320,68.847664 158.119156,93.815239   C148.786652,119.333397 147.120941,146.175064 144.826416,172.892349   C144.404297,177.807556 144.166550,182.738602 143.844284,187.653351   C159.871628,190.540695 167.503250,200.408875 169.408752,216.800247   C173.091049,213.307755 175.900711,210.612076 178.745895,207.954437   C180.903778,205.938751 182.796097,203.316605 185.348145,202.105438   C193.038086,198.455902 197.484848,207.115112 204.340256,207.872620   C206.470276,208.107986 209.059998,212.558273 209.722534,215.469604   C210.464584,218.730316 211.509781,221.042068 214.012115,223.294891   C219.156067,227.925888 221.029587,249.137894 217.009262,254.741776   C215.528259,256.806152 213.592499,258.544250 211.678833,260.633453   C213.468628,261.252930 215.201340,261.767731 216.867950,262.445160   C222.141068,264.588501 226.850220,267.440063 227.811218,273.667786   C228.828049,280.257477 225.068069,284.697479 219.863449,287.441498   C213.575623,290.756561 207.019730,294.076477 200.177673,295.716278   C187.413361,298.775513 174.404861,300.936676 161.406830,302.853485   C153.915359,303.958191 153.644043,312.452515 147.681091,314.856171   C146.977661,315.139709 146.640625,316.401978 146.209091,317.248993   C146.074265,317.513641 146.168182,317.905701 146.189453,318.237396   C147.552872,339.491028 150.792160,360.257996 160.762726,379.509918   C167.317047,392.165527 176.108154,402.522156 189.124023,408.713898   C199.321487,413.564972 209.744400,415.110260 220.895355,408.985779  M70.462929,280.114166   C63.338333,286.244202 55.723278,281.257935 53.529728,273.874115   C53.066311,272.314178 52.924248,270.364990 51.898067,269.313507   C44.998062,262.243500 32.269180,262.435181 24.773281,269.522003   C21.261234,272.842377 21.124830,275.482574 24.626654,278.838440   C26.162300,280.310120 27.967392,281.786316 29.926497,282.480927   C38.369198,285.474182 46.728523,289.141083 55.453583,290.825439   C99.186691,299.268188 143.119156,299.646667 186.944153,291.651947   C196.313309,289.942841 205.388245,286.177795 214.284744,282.582916   C217.061646,281.460815 220.267426,277.939972 220.552353,275.230682   C220.771347,273.148285 216.846146,270.476532 214.511307,268.343323   C213.328766,267.262878 211.617020,266.726105 210.093140,266.061371   C205.125763,263.894470 199.598602,267.716614 198.860138,273.061035   C198.501419,275.657257 196.928925,279.592651 195.010544,280.230957   C177.801804,285.957184 160.451050,294.075653 142.726639,281.248444   C132.449554,289.993011 120.789513,293.796448 107.448616,291.376526   C94.182121,288.970154 84.298950,281.923431 78.720398,269.101868   C75.879990,272.968964 73.439980,276.290924 70.462929,280.114166  M99.675583,248.803726   C95.055870,242.971588 102.121597,240.842880 104.298981,236.850540   C94.866249,237.352310 87.483543,243.867340 84.676514,253.462418   C82.042946,262.464569 85.122894,274.026001 92.638672,278.488373   C98.224655,281.804962 104.660149,284.281189 111.032776,285.562500   C125.370880,288.445343 141.370850,278.800598 145.233459,265.855713   C148.093857,256.269562 143.707855,244.635498 136.547470,241.696777   C133.980789,243.118286 131.845596,244.773911 129.430359,245.507767   C126.927734,246.268188 125.919983,247.308533 125.944214,249.973557   C125.982124,254.143143 122.391769,256.607758 119.761551,254.646240   C113.712021,250.134674 106.951477,250.207153 99.675583,248.803726  M158.088272,239.570358   C156.365005,242.796585 154.601685,246.002197 152.927887,249.253876   C150.429657,254.107101 151.635284,258.543579 156.219757,261.635284   C161.475098,265.179382 161.796371,265.141541 166.673721,259.511902   C168.849945,257.000031 170.763168,254.249420 173.041473,251.839478   C176.451294,248.232666 179.736206,244.364517 183.699203,241.460342   C188.607544,237.863388 192.621780,239.834412 193.865906,245.820877   C194.677200,249.724701 195.090439,253.724289 196.119171,257.563843   C196.566071,259.231812 198.111877,260.605377 199.158585,262.112640   C200.462128,260.633911 201.835464,259.208801 203.033554,257.649017   C203.488342,257.056976 203.539734,256.155060 203.740173,255.506958   C212.816528,254.012955 215.120758,249.307922 211.246948,241.384308   C210.549515,239.957779 210.835144,237.666504 211.434875,236.061417   C213.289474,231.097794 211.953583,227.392929 206.794662,225.999908   C203.015640,224.979507 202.705078,223.309952 203.682632,219.866165   C205.217331,214.459732 201.778275,211.070847 196.269516,212.044617   C194.746979,212.313736 193.244385,212.695694 192.451340,212.868896   C191.118484,210.555893 190.216385,208.990417 189.314316,207.424973   C187.567703,208.502716 185.660172,209.389755 184.108734,210.698792   C181.090012,213.245911 178.589294,216.531113 175.305801,218.615494   C167.429550,223.615326 161.525162,230.033676 158.088272,239.570358  M88.272568,230.634720   C89.315041,225.926895 90.451126,221.237488 91.380737,216.507477   C93.386520,206.301743 89.621674,200.678162 79.498650,199.172958   C76.251694,198.690170 72.811615,198.738937 69.559364,199.218765   C62.800930,200.215866 59.104671,203.863266 58.606983,209.680893   C61.897903,209.849228 65.222183,209.767365 68.441643,210.308807   C69.716377,210.523178 70.758148,212.122803 71.905998,213.091690   C70.714600,213.712387 69.565475,214.740616 68.323067,214.869476   C65.688774,215.142685 62.997971,214.828415 60.346928,215.004562   C59.340439,215.071442 57.923698,215.553131 57.472897,216.309830   C54.823696,220.756668 57.697792,225.567291 62.841286,225.943008   C65.347382,226.126068 69.012123,224.459671 69.525055,228.691376   C69.578606,229.133224 65.236984,230.381897 62.855305,230.771408   C60.222675,231.201950 56.621136,229.962433 57.195610,234.672333   C57.622128,238.169128 55.424644,243.225983 62.268646,243.288040   C63.985146,243.303604 65.685707,245.076660 67.393593,246.042007   C65.569847,246.722641 63.720013,247.342026 61.930927,248.104034   C60.591866,248.674393 58.175930,249.495316 58.210346,250.090744   C58.659378,257.859833 59.022007,265.686188 60.375027,273.326630   C60.968445,276.677582 64.354736,277.160461 67.048515,274.625336   C68.475945,273.281982 69.798973,271.632141 70.613754,269.864655   C76.505417,257.083893 82.255157,244.237701 88.272568,230.634720  M424.800964,174.319885   C416.772736,171.409195 409.188782,172.158890 403.018646,178.260956   C397.270508,183.945663 396.417328,191.170258 398.948029,198.658569   C401.334930,205.721313 406.814178,210.101349 413.168274,213.360672   C419.835724,216.780746 424.650574,221.297180 424.508972,229.437424   C424.506775,229.565338 425.033661,229.702423 425.555695,229.950058   C432.714813,221.174515 438.007599,211.473557 438.709991,199.936081   C439.373047,189.044312 436.049591,179.879547 424.800964,174.319885  M145.869431,222.481400   C143.686951,214.879364 142.334366,206.902527 139.112946,199.769730   C135.042221,190.756393 126.232025,190.674286 120.203659,198.534485   C113.474861,207.307968 114.999405,217.803879 113.325996,227.736206   C116.634048,224.697784 118.889854,219.062317 124.092255,221.662872   C126.604698,222.918777 127.419182,227.571426 129.546021,231.755325   C132.643921,232.912415 137.389542,234.684937 143.053223,236.800369   C143.997391,232.224716 144.914200,227.781586 145.869431,222.481400  M397.644226,122.712990   C396.967072,120.912941 396.289886,119.112885 395.612701,117.312836   C395.027313,121.725395 394.968811,126.028633 395.613159,130.223923   C396.739258,137.555618 399.853607,143.313568 407.876190,145.552261   C409.649475,146.047089 411.345245,149.316650 411.771576,151.556915   C412.412201,154.923279 411.624969,158.539795 412.011810,161.986313   C412.172943,163.421783 413.578156,165.573471 414.790253,165.868484   C417.941254,166.635391 418.032166,164.099640 417.991211,161.792694   C417.932220,158.467300 418.071960,155.133331 417.885345,151.816620   C417.671722,148.020355 419.106659,145.686508 422.668274,144.021927   C425.101227,142.884857 427.515808,140.952866 429.031067,138.751587   C433.324097,132.514908 432.244598,125.428154 431.996063,119.777969   C429.241852,122.360161 426.648407,126.557068 423.057709,127.748573   C417.529938,129.582870 416.237030,123.341454 413.554047,119.900131   C409.794678,130.189651 404.841827,131.219711 397.644226,122.712990  M190.409531,275.873230   C194.060608,274.384521 193.188843,271.403259 192.673523,268.663788   C191.479019,262.313568 190.196808,255.979034 188.862030,249.656754   C188.610992,248.467728 187.951050,247.365021 186.933197,244.897232   C175.857224,256.447174 164.776215,266.568665 159.232407,282.103546   C170.087860,281.670654 180.025894,279.727020 190.409531,275.873230  M161.559418,207.288651   C156.691757,197.006561 149.831177,192.204666 140.964706,192.867416   C150.380264,207.271332 154.015198,222.499023 147.832855,239.255371   C147.396698,240.437500 148.275513,242.104797 148.542877,243.546494   C149.578018,242.646515 150.984100,241.943024 151.583115,240.812042   C153.992096,236.263901 155.368927,230.925613 158.582779,227.103180   C163.657715,221.067245 163.758469,214.908173 161.559418,207.288651  M34.119648,254.433884   C39.743557,257.014313 45.367466,259.594727 52.463902,262.850769   C51.859447,251.939316 51.662895,242.542313 50.511421,233.263794   C50.315586,231.685760 46.003841,229.533646 43.629974,229.578339   C40.480156,229.637619 39.450596,233.717514 41.106377,237.120377   C41.686024,238.311630 42.218204,239.525970 43.167912,241.590118   C40.442657,241.292892 38.784580,240.746109 37.286873,241.033905   C35.004669,241.472443 31.715330,241.887405 30.896305,243.410675   C29.857321,245.342972 30.623316,248.419479 31.093658,250.911469   C31.307228,252.043045 32.681385,252.955551 34.119648,254.433884  M109.727859,196.094437   C103.262512,200.397339 97.215103,204.759354 97.723259,214.006332   C97.916542,217.523575 96.347252,221.134445 95.604385,224.707458   C95.083725,227.211746 94.602211,229.724167 93.951828,232.994080   C95.931335,232.208817 97.369392,232.095337 97.944397,231.331879   C100.563873,227.853821 102.304741,223.504517 107.615982,223.094223   C108.080017,223.058380 108.735649,221.427734 108.768784,220.518417   C109.105141,211.286636 110.738533,202.461914 116.980011,194.974625   C116.674942,194.632935 116.369881,194.291245 116.064819,193.949554   C114.171951,194.552872 112.279083,195.156189 109.727859,196.094437  M110.859886,310.858185   C124.499519,316.692352 143.398041,313.447662 147.182190,304.480072   C132.731201,304.480072 118.349533,304.480072 102.414467,304.480072   C105.825287,307.098419 108.021721,308.784515 110.859886,310.858185  M106.658066,242.117325   C105.943489,242.796219 105.228905,243.475113 104.514328,244.154022   C104.546715,244.604156 104.579094,245.054291 104.611481,245.504425   C111.329453,241.890808 115.519371,246.502518 119.609970,249.693771   C121.028122,246.749924 121.622887,243.780319 123.433594,242.241196   C125.269989,240.680252 128.307404,240.532242 130.818817,239.765411   C130.746902,239.167679 130.675003,238.569931 130.603088,237.972183   C129.018890,237.826355 127.436607,237.652954 125.849960,237.542114   C124.096252,237.419617 122.338539,237.354431 120.582573,237.264297   C120.935089,235.405853 121.260513,233.541733 121.649025,231.690842   C121.940170,230.303787 122.312515,228.933762 122.648705,227.556137   C122.077423,227.325150 121.506134,227.094147 120.934853,226.863159   C119.641281,229.197998 118.429420,231.583557 117.023132,233.848404   C116.195587,235.181168 115.059296,236.322220 114.061867,237.549500   C112.997520,236.407120 111.914909,235.281113 110.873177,234.118469   C109.379402,232.451309 107.915413,230.757446 106.438705,229.074982   C106.080185,229.397980 105.721672,229.720993 105.363152,230.044006   C106.440353,231.829239 107.636757,233.554977 108.564911,235.414597   C109.752586,237.794189 110.359032,240.205948 106.658066,242.117325  M416.078949,223.685715   C414.471100,222.463348 412.863251,221.240967 411.255402,220.018600   C410.756927,220.222595 410.258484,220.426590 409.760040,220.630600   C409.760040,228.429886 409.616516,236.234406 409.900421,244.023346   C409.948120,245.331406 411.845428,246.572067 412.888123,247.843903   C414.288422,246.652420 416.851379,245.501801 416.894928,244.262634   C417.128235,237.623398 416.733582,230.962097 416.078949,223.685715  M79.383995,189.718063   C79.859650,189.424301 80.598038,189.239273 80.771393,188.820404   C83.235085,182.867493 85.654030,176.895416 88.012550,170.899963   C88.981369,168.437149 90.257347,165.951859 90.495483,163.393204   C90.666153,161.559418 89.344322,159.586716 88.688370,157.675995   C86.906975,158.596985 84.678421,159.133133 83.465034,160.542999   C82.148453,162.072754 81.305481,164.363510 81.077682,166.413712   C80.240471,173.948776 79.744164,181.521729 79.383995,189.718063  M71.568520,191.655212   C74.709908,193.282471 74.138824,190.702835 73.773407,189.402924   C71.937096,182.870605 70.217468,176.269211 67.762688,169.962250   C66.520920,166.771835 63.929005,162.175995 59.795036,164.861694   C55.768497,167.477600 59.699741,170.979584 61.331814,173.847214   C64.602959,179.594818 67.920845,185.315826 71.568520,191.655212  M149.716232,272.150055   C148.346405,275.731110 146.945969,279.325378 152.921585,279.799500   C159.563019,269.847809 159.387955,267.722473 151.607040,266.351257   C151.060806,268.010864 150.501358,269.710571 149.716232,272.150055  M123.545349,175.060989   C122.160973,172.326706 120.331329,171.025055 116.915329,173.152176   C119.312637,178.506439 121.618988,183.657562 124.518555,190.133591   C127.197060,184.183456 125.189240,179.992004 123.545349,175.060989  M87.710732,185.306915   C87.128242,187.619919 86.545753,189.932922 85.963264,192.245941   C86.535110,192.447144 87.106964,192.648346 87.678810,192.849548   C90.283302,189.112595 93.035400,185.464874 95.387085,181.575073   C95.965248,180.618759 95.237404,178.872864 95.109970,177.489960   C93.667587,177.928955 91.733360,177.940079 90.894653,178.904205   C89.535217,180.466919 88.894508,182.654892 87.710732,185.306915  z"/>
<path fill="#FFFEFE" opacity="1.000000" stroke="none" d=" M220.163712,409.091553   C209.744400,415.110260 199.321487,413.564972 189.124023,408.713898   C176.108154,402.522156 167.317047,392.165527 160.762726,379.509918   C150.792160,360.257996 147.552872,339.491028 146.189453,318.237396   C146.168182,317.905701 146.074265,317.513641 146.209091,317.248993   C146.640625,316.401978 146.977661,315.139709 147.681091,314.856171   C153.644043,312.452515 153.915359,303.958191 161.406830,302.853485   C174.404861,300.936676 187.413361,298.775513 200.177673,295.716278   C207.019730,294.076477 213.575623,290.756561 219.863449,287.441498   C225.068069,284.697479 228.828049,280.257477 227.811218,273.667786   C226.850220,267.440063 222.141068,264.588501 216.867950,262.445160   C215.201340,261.767731 213.468628,261.252930 211.678833,260.633453   C213.592499,258.544250 215.528259,256.806152 217.009262,254.741776   C221.029587,249.137894 219.156067,227.925888 214.012115,223.294891   C211.509781,221.042068 210.464584,218.730316 209.722534,215.469604   C209.059998,212.558273 206.470276,208.107986 204.340256,207.872620   C197.484848,207.115112 193.038086,198.455902 185.348145,202.105438   C182.796097,203.316605 180.903778,205.938751 178.745895,207.954437   C175.900711,210.612076 173.091049,213.307755 169.408752,216.800247   C167.503250,200.408875 159.871628,190.540695 143.844284,187.653351   C144.166550,182.738602 144.404297,177.807556 144.826416,172.892349   C147.120941,146.175064 148.786652,119.333397 158.119156,93.815239   C167.250320,68.847664 181.472794,47.815201 205.270096,34.514187   C254.225494,7.151567 314.904541,24.732235 342.080048,73.819817   C353.286163,94.061646 358.343597,115.967010 361.005493,138.612671   C363.085541,156.308487 364.768951,174.051834 366.946716,191.734894   C368.042877,200.635513 370.702942,202.028687 378.984528,198.688904   C382.793823,197.152695 386.394592,195.099548 390.491364,193.083252   C391.548767,201.716095 395.043274,208.798294 401.712372,214.201218   C402.541565,214.872986 402.893280,216.528137 402.916565,217.738190   C403.098663,227.216736 403.251740,236.699463 403.107849,246.176254   C403.089081,247.414413 401.587158,249.204956 400.338440,249.755173   C392.898315,253.033371 385.443878,256.348938 377.770813,259.006927   C371.402588,261.212952 370.616486,262.215210 373.441284,268.512970   C381.330109,286.100800 391.779266,302.110168 403.483551,317.354675   C405.916809,320.524017 408.171570,323.831146 410.486359,327.090576   C427.467529,351.001953 406.760376,373.748749 387.672516,375.967285   C382.569672,376.560394 377.352295,376.735626 372.224701,376.445435   C354.014771,375.414673 339.652222,381.740143 329.985229,397.627899   C328.514435,400.045197 326.869629,402.357788 325.278564,404.700592   C315.976593,418.397491 304.949310,423.065704 288.712067,419.558136   C282.559082,418.228973 276.527618,416.125824 270.626556,413.885986   C258.756104,409.380402 246.850739,405.189392 233.519806,404.337921   C230.244659,401.088867 226.830078,398.686981 224.724869,395.436951   C218.615540,386.005402 213.045273,376.225281 207.228500,366.603088   C206.215790,364.927826 205.032959,363.355408 203.928711,361.735504   C203.347061,361.897003 202.765411,362.058472 202.183762,362.219971   C202.183762,364.887451 201.615143,367.710266 202.293396,370.192413   C204.122284,376.885590 205.881485,383.713867 208.795380,389.962952   C211.914307,396.651825 216.319778,402.740753 220.163712,409.091553  M273.545593,143.076752   C282.067780,133.410889 283.688629,117.645058 277.288940,106.666122   C270.906525,95.716850 257.627167,94.928413 250.705704,105.482216   C243.754761,116.080986 243.430710,127.573418 249.119446,138.761627   C254.100830,148.558655 264.426605,150.348434 273.545593,143.076752  M183.191040,141.354034   C189.683090,146.563293 196.109818,146.498032 202.030823,141.162704   C211.108124,132.983322 213.472946,113.761063 206.642197,103.680008   C201.283630,95.771660 191.819473,95.059731 185.375168,102.080238   C176.792435,111.430374 175.488098,130.315384 183.191040,141.354034  z"/>
<path fill="#FEEC31" opacity="1.000000" stroke="none" d=" M70.731445,279.863525   C73.439980,276.290924 75.879990,272.968964 78.720398,269.101868   C84.298950,281.923431 94.182121,288.970154 107.448616,291.376526   C120.789513,293.796448 132.449554,289.993011 142.726639,281.248444   C160.451050,294.075653 177.801804,285.957184 195.010544,280.230957   C196.928925,279.592651 198.501419,275.657257 198.860138,273.061035   C199.598602,267.716614 205.125763,263.894470 210.093140,266.061371   C211.617020,266.726105 213.328766,267.262878 214.511307,268.343323   C216.846146,270.476532 220.771347,273.148285 220.552353,275.230682   C220.267426,277.939972 217.061646,281.460815 214.284744,282.582916   C205.388245,286.177795 196.313309,289.942841 186.944153,291.651947   C143.119156,299.646667 99.186691,299.268188 55.453583,290.825439   C46.728523,289.141083 38.369198,285.474182 29.926497,282.480927   C27.967392,281.786316 26.162300,280.310120 24.626654,278.838440   C21.124830,275.482574 21.261234,272.842377 24.773281,269.522003   C32.269180,262.435181 44.998062,262.243500 51.898067,269.313507   C52.924248,270.364990 53.066311,272.314178 53.529728,273.874115   C55.723278,281.257935 63.338333,286.244202 70.731445,279.863525  z"/>
<path fill="#FEA345" opacity="1.000000" stroke="none" d=" M99.948853,249.057083   C106.951477,250.207153 113.712021,250.134674 119.761551,254.646240   C122.391769,256.607758 125.982124,254.143143 125.944214,249.973557   C125.919983,247.308533 126.927734,246.268188 129.430359,245.507767   C131.845596,244.773911 133.980789,243.118286 136.547470,241.696777   C143.707855,244.635498 148.093857,256.269562 145.233459,265.855713   C141.370850,278.800598 125.370880,288.445343 111.032776,285.562500   C104.660149,284.281189 98.224655,281.804962 92.638672,278.488373   C85.122894,274.026001 82.042946,262.464569 84.676514,253.462418   C87.483543,243.867340 94.866249,237.352310 104.298981,236.850540   C102.121597,240.842880 95.055870,242.971588 99.948853,249.057083  z"/>
<path fill="#FECD87" opacity="1.000000" stroke="none" d=" M158.240967,239.226852   C161.525162,230.033676 167.429550,223.615326 175.305801,218.615494   C178.589294,216.531113 181.090012,213.245911 184.108734,210.698792   C185.660172,209.389755 187.567703,208.502716 189.314301,207.424957   C190.216385,208.990417 191.118484,210.555893 192.451340,212.868896   C193.244385,212.695694 194.746979,212.313736 196.269516,212.044617   C201.778275,211.070847 205.217331,214.459732 203.682632,219.866165   C202.705078,223.309952 203.015640,224.979507 206.794662,225.999908   C211.953583,227.392929 213.289474,231.097794 211.434875,236.061417   C210.835144,237.666504 210.549515,239.957779 211.246948,241.384308   C215.120758,249.307922 212.816528,254.012955 203.740173,255.506958   C203.539734,256.155060 203.488342,257.056976 203.033554,257.649017   C201.835464,259.208801 200.462128,260.633911 199.158569,262.112640   C198.111877,260.605377 196.566071,259.231812 196.119171,257.563843   C195.090439,253.724289 194.677200,249.724701 193.865906,245.820877   C192.621780,239.834412 188.607544,237.863388 183.699203,241.460342   C179.736206,244.364517 176.451294,248.232666 173.041473,251.839478   C170.763168,254.249420 168.849945,257.000031 166.673721,259.511902   C161.796371,265.141541 161.475098,265.179382 156.219757,261.635284   C151.635284,258.543579 150.429657,254.107101 152.927887,249.253876   C154.601685,246.002197 156.365005,242.796585 158.240967,239.226852  M174.642014,241.072052   C178.155411,235.564011 177.520920,231.143860 172.961700,230.394043   C168.979462,229.739105 165.988251,231.919022 164.900497,235.429703   C164.246994,237.538925 164.584702,240.914825 165.926392,242.474945   C168.414627,245.368286 171.578384,244.065262 174.642014,241.072052  z"/>
<path fill="#FEBD71" opacity="1.000000" stroke="none" d=" M88.161209,231.023483   C82.255157,244.237701 76.505417,257.083893 70.613754,269.864655   C69.798973,271.632141 68.475945,273.281982 67.048515,274.625336   C64.354736,277.160461 60.968445,276.677582 60.375027,273.326630   C59.022007,265.686188 58.659378,257.859833 58.210346,250.090744   C58.175930,249.495316 60.591866,248.674393 61.930927,248.104034   C63.720013,247.342026 65.569847,246.722641 67.393593,246.042007   C65.685707,245.076660 63.985146,243.303604 62.268646,243.288040   C55.424644,243.225983 57.622128,238.169128 57.195610,234.672333   C56.621136,229.962433 60.222675,231.201950 62.855305,230.771408   C65.236984,230.381897 69.578606,229.133224 69.525055,228.691376   C69.012123,224.459671 65.347382,226.126068 62.841286,225.943008   C57.697792,225.567291 54.823696,220.756668 57.472897,216.309830   C57.923698,215.553131 59.340439,215.071442 60.346928,215.004562   C62.997971,214.828415 65.688774,215.142685 68.323067,214.869476   C69.565475,214.740616 70.714600,213.712387 71.905998,213.091690   C70.758148,212.122803 69.716377,210.523178 68.441643,210.308807   C65.222183,209.767365 61.897903,209.849228 58.606983,209.680893   C59.104671,203.863266 62.800930,200.215866 69.559364,199.218765   C72.811615,198.738937 76.251694,198.690170 79.498650,199.172958   C89.621674,200.678162 93.386520,206.301743 91.380737,216.507477   C90.451126,221.237488 89.315041,225.926895 88.161209,231.023483  z"/>
<path fill="#FEFCFA" opacity="1.000000" stroke="none" d=" M425.155060,174.493622   C436.049591,179.879547 439.373047,189.044312 438.709991,199.936081   C438.007599,211.473557 432.714813,221.174515 425.555695,229.950058   C425.033661,229.702423 424.506775,229.565338 424.508972,229.437424   C424.650574,221.297180 419.835724,216.780746 413.168274,213.360672   C406.814178,210.101349 401.334930,205.721313 398.948029,198.658569   C396.417328,191.170258 397.270508,183.945663 403.018646,178.260956   C409.188782,172.158890 416.772736,171.409195 425.155060,174.493622  z"/>
<path fill="#FEA344" opacity="1.000000" stroke="none" d=" M145.850220,222.909912   C144.914200,227.781586 143.997391,232.224716 143.053223,236.800369   C137.389542,234.684937 132.643921,232.912415 129.546021,231.755325   C127.419182,227.571426 126.604698,222.918777 124.092255,221.662872   C118.889854,219.062317 116.634048,224.697784 113.325996,227.736206   C114.999405,217.803879 113.474861,207.307968 120.203659,198.534485   C126.232025,190.674286 135.042221,190.756393 139.112946,199.769730   C142.334366,206.902527 143.686951,214.879364 145.850220,222.909912  z"/>
<path fill="#FDC47C" opacity="1.000000" stroke="none" d=" M397.829346,123.030167   C404.841827,131.219711 409.794678,130.189651 413.554047,119.900131   C416.237030,123.341454 417.529938,129.582870 423.057709,127.748573   C426.648407,126.557068 429.241852,122.360161 431.996063,119.777969   C432.244598,125.428154 433.324097,132.514908 429.031067,138.751587   C427.515808,140.952866 425.101227,142.884857 422.668274,144.021927   C419.106659,145.686508 417.671722,148.020355 417.885345,151.816620   C418.071960,155.133331 417.932220,158.467300 417.991211,161.792694   C418.032166,164.099640 417.941254,166.635391 414.790253,165.868484   C413.578156,165.573471 412.172943,163.421783 412.011810,161.986313   C411.624969,158.539795 412.412201,154.923279 411.771576,151.556915   C411.345245,149.316650 409.649475,146.047089 407.876190,145.552261   C399.853607,143.313568 396.739258,137.555618 395.613159,130.223923   C394.968811,126.028633 395.027313,121.725395 395.612701,117.312836   C396.289886,119.112885 396.967072,120.912941 397.829346,123.030167  z"/>
<path fill="#FDB462" opacity="1.000000" stroke="none" d=" M190.049805,276.041931   C180.025894,279.727020 170.087860,281.670654 159.232407,282.103546   C164.776215,266.568665 175.857224,256.447174 186.933197,244.897232   C187.951050,247.365021 188.610992,248.467728 188.862030,249.656754   C190.196808,255.979034 191.479019,262.313568 192.673523,268.663788   C193.188843,271.403259 194.060608,274.384521 190.049805,276.041931  M180.552231,261.077545   C180.001389,262.749542 179.007050,264.418152 178.994156,266.094299   C178.969086,269.350067 181.128540,271.046234 184.228470,270.553864   C187.164948,270.087433 189.044434,268.082977 188.348755,264.846649   C187.524567,261.012482 185.439133,258.867798 180.552231,261.077545  z"/>
<path fill="#FDA244" opacity="1.000000" stroke="none" d=" M161.684464,207.670486   C163.758469,214.908173 163.657715,221.067245 158.582779,227.103180   C155.368927,230.925613 153.992096,236.263901 151.583115,240.812042   C150.984100,241.943024 149.578018,242.646515 148.542877,243.546494   C148.275513,242.104797 147.396698,240.437500 147.832855,239.255371   C154.015198,222.499023 150.380264,207.271332 140.960876,192.867981   C149.831177,192.204666 156.691757,197.006561 161.684464,207.670486  z"/>
<path fill="#FEC580" opacity="1.000000" stroke="none" d=" M220.529541,409.038666   C216.319778,402.740753 211.914307,396.651825 208.795380,389.962952   C205.881485,383.713867 204.122284,376.885590 202.293396,370.192413   C201.615143,367.710266 202.183762,364.887451 202.183762,362.219971   C202.765411,362.058472 203.347061,361.897003 203.928711,361.735504   C205.032959,363.355408 206.215790,364.927826 207.228500,366.603088   C213.045273,376.225281 218.615540,386.005402 224.724869,395.436951   C226.830078,398.686981 230.244659,401.088867 233.101608,404.195129   C229.059860,406.003296 224.977600,407.494537 220.529541,409.038666  z"/>
<path fill="#FDA244" opacity="1.000000" stroke="none" d=" M33.824364,254.200653   C32.681385,252.955551 31.307228,252.043045 31.093658,250.911469   C30.623316,248.419479 29.857321,245.342972 30.896305,243.410675   C31.715330,241.887405 35.004669,241.472443 37.286873,241.033905   C38.784580,240.746109 40.442657,241.292892 43.167912,241.590118   C42.218204,239.525970 41.686024,238.311630 41.106377,237.120377   C39.450596,233.717514 40.480156,229.637619 43.629974,229.578339   C46.003841,229.533646 50.315586,231.685760 50.511421,233.263794   C51.662895,242.542313 51.859447,251.939316 52.463902,262.850769   C45.367466,259.594727 39.743557,257.014313 33.824364,254.200653  z"/>
<path fill="#FDA243" opacity="1.000000" stroke="none" d=" M110.057037,195.926971   C112.279083,195.156189 114.171951,194.552872 116.064819,193.949554   C116.369881,194.291245 116.674942,194.632935 116.980011,194.974625   C110.738533,202.461914 109.105141,211.286636 108.768784,220.518417   C108.735649,221.427734 108.080017,223.058380 107.615982,223.094223   C102.304741,223.504517 100.563873,227.853821 97.944397,231.331879   C97.369392,232.095337 95.931335,232.208817 93.951828,232.994080   C94.602211,229.724167 95.083725,227.211746 95.604385,224.707458   C96.347252,221.134445 97.916542,217.523575 97.723259,214.006332   C97.215103,204.759354 103.262512,200.397339 110.057037,195.926971  z"/>
<path fill="#FDA143" opacity="1.000000" stroke="none" d=" M110.539017,310.664398   C108.021721,308.784515 105.825287,307.098419 102.414467,304.480072   C118.349533,304.480072 132.731201,304.480072 147.182190,304.480072   C143.398041,313.447662 124.499519,316.692352 110.539017,310.664398  z"/>
<path fill="#FCA142" opacity="1.000000" stroke="none" d=" M106.964195,241.951416   C110.359032,240.205948 109.752586,237.794189 108.564911,235.414597   C107.636757,233.554977 106.440353,231.829239 105.363152,230.044006   C105.721672,229.720993 106.080185,229.397980 106.438705,229.074982   C107.915413,230.757446 109.379402,232.451309 110.873177,234.118469   C111.914909,235.281113 112.997520,236.407120 114.061874,237.549500   C115.059296,236.322220 116.195587,235.181168 117.023132,233.848404   C118.429420,231.583557 119.641281,229.197998 120.934853,226.863159   C121.506134,227.094147 122.077423,227.325150 122.648705,227.556137   C122.312515,228.933762 121.940170,230.303787 121.649025,231.690842   C121.260513,233.541733 120.935089,235.405853 120.582573,237.264297   C122.338539,237.354431 124.096252,237.419617 125.849960,237.542114   C127.436607,237.652954 129.018890,237.826355 130.603088,237.972183   C130.675003,238.569931 130.746902,239.167679 130.818817,239.765411   C128.307404,240.532242 125.269989,240.680252 123.433594,242.241196   C121.622887,243.780319 121.028122,246.749924 119.609970,249.693771   C115.519371,246.502518 111.329453,241.890808 104.611481,245.504425   C104.579094,245.054291 104.546715,244.604156 104.514328,244.154022   C105.228905,243.475113 105.943489,242.796219 106.964195,241.951416  z"/>
<path fill="#FCA142" opacity="1.000000" stroke="none" d=" M416.317444,223.997070   C416.733582,230.962097 417.128235,237.623398 416.894928,244.262634   C416.851379,245.501801 414.288422,246.652420 412.888123,247.843903   C411.845428,246.572067 409.948120,245.331406 409.900421,244.023346   C409.616516,236.234406 409.760040,228.429886 409.760040,220.630600   C410.258484,220.426590 410.756927,220.222595 411.255402,220.018600   C412.863251,221.240967 414.471100,222.463348 416.317444,223.997070  z"/>
<path fill="#FDA243" opacity="1.000000" stroke="none" d=" M79.251785,189.399231   C79.744164,181.521729 80.240471,173.948776 81.077682,166.413712   C81.305481,164.363510 82.148453,162.072754 83.465034,160.542999   C84.678421,159.133133 86.906975,158.596985 88.688370,157.675995   C89.344322,159.586716 90.666153,161.559418 90.495483,163.393204   C90.257347,165.951859 88.981369,168.437149 88.012550,170.899963   C85.654030,176.895416 83.235085,182.867493 80.771393,188.820404   C80.598038,189.239273 79.859650,189.424301 79.251785,189.399231  z"/>
<path fill="#FCA243" opacity="1.000000" stroke="none" d=" M71.393974,191.351501   C67.920845,185.315826 64.602959,179.594818 61.331814,173.847214   C59.699741,170.979584 55.768497,167.477600 59.795036,164.861694   C63.929005,162.175995 66.520920,166.771835 67.762688,169.962250   C70.217468,176.269211 71.937096,182.870605 73.773407,189.402924   C74.138824,190.702835 74.709908,193.282471 71.393974,191.351501  z"/>
<path fill="#FCB05C" opacity="1.000000" stroke="none" d=" M149.829071,271.780151   C150.501358,269.710571 151.060806,268.010864 151.607040,266.351257   C159.387955,267.722473 159.563019,269.847809 152.921585,279.799500   C146.945969,279.325378 148.346405,275.731110 149.829071,271.780151  z"/>
<path fill="#FCA041" opacity="1.000000" stroke="none" d=" M123.722382,175.415710   C125.189240,179.992004 127.197060,184.183456 124.518555,190.133591   C121.618988,183.657562 119.312637,178.506439 116.915329,173.152176   C120.331329,171.025055 122.160973,172.326706 123.722382,175.415710  z"/>
<path fill="#FCA142" opacity="1.000000" stroke="none" d=" M87.830536,184.942902   C88.894508,182.654892 89.535217,180.466919 90.894653,178.904205   C91.733360,177.940079 93.667587,177.928955 95.109970,177.489960   C95.237404,178.872864 95.965248,180.618759 95.387085,181.575073   C93.035400,185.464874 90.283302,189.112595 87.678810,192.849548   C87.106964,192.648346 86.535110,192.447144 85.963264,192.245941   C86.545753,189.932922 87.128242,187.619919 87.830536,184.942902  z"/>
<path fill="#E77119" opacity="1.000000" stroke="none" d=" M273.287109,143.334549   C264.426605,150.348434 254.100830,148.558655 249.119446,138.761627   C243.430710,127.573418 243.754761,116.080986 250.705704,105.482216   C257.627167,94.928413 270.906525,95.716850 277.288940,106.666122   C283.688629,117.645058 282.067780,133.410889 273.287109,143.334549  z"/>
<path fill="#E87219" opacity="1.000000" stroke="none" d=" M182.946289,141.072342   C175.488098,130.315384 176.792435,111.430374 185.375168,102.080238   C191.819473,95.059731 201.283630,95.771660 206.642197,103.680008   C213.472946,113.761063 211.108124,132.983322 202.030823,141.162704   C196.109818,146.498032 189.683090,146.563293 182.946289,141.072342  z"/>
<path fill="#EA771C" opacity="1.000000" stroke="none" d=" M174.382538,241.356720   C171.578384,244.065262 168.414627,245.368286 165.926392,242.474945   C164.584702,240.914825 164.246994,237.538925 164.900497,235.429703   C165.988251,231.919022 168.979462,229.739105 172.961700,230.394043   C177.520920,231.143860 178.155411,235.564011 174.382538,241.356720  z"/>
<path fill="#E9751A" opacity="1.000000" stroke="none" d=" M180.869995,260.836426   C185.439133,258.867798 187.524567,261.012482 188.348755,264.846649   C189.044434,268.082977 187.164948,270.087433 184.228470,270.553864   C181.128540,271.046234 178.969086,269.350067 178.994156,266.094299   C179.007050,264.418152 180.001389,262.749542 180.869995,260.836426  z"/>
</svg>